<?xml version="1.0" encoding="UTF-8" standalone="no"?>
<!DOCTYPE svg PUBLIC "-//W3C//DTD SVG 1.1//EN"
 "http://www.w3.org/Graphics/SVG/1.1/DTD/svg11.dtd">
<!-- Generated by graphviz version 8.0.5 (20230430.1635)
 -->
<!-- Title: Database Structure Pages: 1 -->
<svg width="1488pt" height="1067pt"
 viewBox="0.00 0.00 1488.00 1067.00" xmlns="http://www.w3.org/2000/svg" xmlns:xlink="http://www.w3.org/1999/xlink">
<g id="graph0" class="graph" transform="scale(1 1) rotate(0) translate(4 1063)">
<title>Database Structure</title>
<polygon fill="white" stroke="none" points="-4,4 -4,-1063 1484,-1063 1484,4 -4,4"/>
<text text-anchor="middle" x="740" y="-1041.7" font-family="Helvetica,sans-Serif" font-size="14.00">ER Diagram: db</text>
<!-- api_locations -->
<g id="node1" class="node">
<title>api_locations</title>
<polygon fill="#dddddd" stroke="none" points="210,-312 210,-334 336,-334 336,-312 210,-312"/>
<polygon fill="none" stroke="black" points="210,-312 210,-334 336,-334 336,-312 210,-312"/>
<text text-anchor="start" x="237" y="-317.7" font-family="Times,serif" font-size="14.00">api_locations</text>
<polygon fill="none" stroke="black" points="210,-290 210,-312 336,-312 336,-290 210,-290"/>
<text text-anchor="start" x="249" y="-296.7" font-family="Times,serif" font-size="14.00">id:</text>
<text text-anchor="start" x="263.25" y="-296.7" font-family="Helvetica,sans-Serif" font-style="oblique" font-size="10.00">BIGINT</text>
<polygon fill="none" stroke="black" points="210,-268 210,-290 336,-290 336,-268 210,-268"/>
<text text-anchor="start" x="239.25" y="-274.7" font-family="Times,serif" font-size="14.00">uri:</text>
<text text-anchor="start" x="258" y="-274.7" font-family="Helvetica,sans-Serif" font-style="oblique" font-size="10.00">VARCHAR</text>
<polygon fill="none" stroke="black" points="210,-246 210,-268 336,-268 336,-246 210,-246"/>
<text text-anchor="start" x="225.38" y="-252.7" font-family="Times,serif" font-size="14.00">api_key:</text>
<text text-anchor="start" x="271.88" y="-252.7" font-family="Helvetica,sans-Serif" font-style="oblique" font-size="10.00">VARCHAR</text>
<polygon fill="none" stroke="black" points="210,-224 210,-246 336,-246 336,-224 210,-224"/>
<text text-anchor="start" x="235.5" y="-230.7" font-family="Times,serif" font-size="14.00">slug:</text>
<text text-anchor="start" x="261.75" y="-230.7" font-family="Helvetica,sans-Serif" font-style="oblique" font-size="10.00">VARCHAR</text>
<polygon fill="none" stroke="black" points="210,-202 210,-224 336,-224 336,-202 210,-202"/>
<text text-anchor="start" x="214.5" y="-208.7" font-family="Times,serif" font-size="14.00">created_at:</text>
<text text-anchor="start" x="273.75" y="-208.7" font-family="Helvetica,sans-Serif" font-style="oblique" font-size="10.00">TIMESTAMP</text>
<polygon fill="none" stroke="black" points="210,-180 210,-202 336,-202 336,-180 210,-180"/>
<text text-anchor="start" x="212.63" y="-186.7" font-family="Times,serif" font-size="14.00">updated_at:</text>
<text text-anchor="start" x="275.63" y="-186.7" font-family="Helvetica,sans-Serif" font-style="oblique" font-size="10.00">TIMESTAMP</text>
<polygon fill="none" stroke="black" points="210,-158 210,-180 336,-180 336,-158 210,-158"/>
<text text-anchor="start" x="234.38" y="-164.7" font-family="Times,serif" font-size="14.00">user_id:</text>
<text text-anchor="start" x="277.88" y="-164.7" font-family="Helvetica,sans-Serif" font-style="oblique" font-size="10.00">BIGINT</text>
</g>
<!-- users -->
<g id="node6" class="node">
<title>users</title>
<polygon fill="#dddddd" stroke="none" points="1087.5,-180 1087.5,-202 1250.5,-202 1250.5,-180 1087.5,-180"/>
<polygon fill="none" stroke="black" points="1087.5,-180 1087.5,-202 1250.5,-202 1250.5,-180 1087.5,-180"/>
<text text-anchor="start" x="1155.13" y="-185.7" font-family="Times,serif" font-size="14.00">users</text>
<polygon fill="none" stroke="black" points="1087.5,-158 1087.5,-180 1250.5,-180 1250.5,-158 1087.5,-158"/>
<text text-anchor="start" x="1145" y="-164.7" font-family="Times,serif" font-size="14.00">id:</text>
<text text-anchor="start" x="1159.25" y="-164.7" font-family="Helvetica,sans-Serif" font-style="oblique" font-size="10.00">BIGINT</text>
<polygon fill="none" stroke="black" points="1087.5,-136 1087.5,-158 1250.5,-158 1250.5,-136 1087.5,-136"/>
<text text-anchor="start" x="1127.75" y="-142.7" font-family="Times,serif" font-size="14.00">name:</text>
<text text-anchor="start" x="1161.5" y="-142.7" font-family="Helvetica,sans-Serif" font-style="oblique" font-size="10.00">VARCHAR</text>
<polygon fill="none" stroke="black" points="1087.5,-114 1087.5,-136 1250.5,-136 1250.5,-114 1087.5,-114"/>
<text text-anchor="start" x="1127.38" y="-120.7" font-family="Times,serif" font-size="14.00">email:</text>
<text text-anchor="start" x="1161.88" y="-120.7" font-family="Helvetica,sans-Serif" font-style="oblique" font-size="10.00">VARCHAR</text>
<polygon fill="none" stroke="black" points="1087.5,-92 1087.5,-114 1250.5,-114 1250.5,-92 1087.5,-92"/>
<text text-anchor="start" x="1090.25" y="-98.7" font-family="Times,serif" font-size="14.00">email_verified_at:</text>
<text text-anchor="start" x="1190" y="-98.7" font-family="Helvetica,sans-Serif" font-style="oblique" font-size="10.00">TIMESTAMP</text>
<polygon fill="none" stroke="black" points="1087.5,-70 1087.5,-92 1250.5,-92 1250.5,-70 1087.5,-70"/>
<text text-anchor="start" x="1117.25" y="-76.7" font-family="Times,serif" font-size="14.00">password:</text>
<text text-anchor="start" x="1172" y="-76.7" font-family="Helvetica,sans-Serif" font-style="oblique" font-size="10.00">VARCHAR</text>
<polygon fill="none" stroke="black" points="1087.5,-48 1087.5,-70 1250.5,-70 1250.5,-48 1087.5,-48"/>
<text text-anchor="start" x="1096.25" y="-54.7" font-family="Times,serif" font-size="14.00">remember_token:</text>
<text text-anchor="start" x="1193" y="-54.7" font-family="Helvetica,sans-Serif" font-style="oblique" font-size="10.00">VARCHAR</text>
<polygon fill="none" stroke="black" points="1087.5,-26 1087.5,-48 1250.5,-48 1250.5,-26 1087.5,-26"/>
<text text-anchor="start" x="1110.5" y="-32.7" font-family="Times,serif" font-size="14.00">created_at:</text>
<text text-anchor="start" x="1169.75" y="-32.7" font-family="Helvetica,sans-Serif" font-style="oblique" font-size="10.00">TIMESTAMP</text>
<polygon fill="none" stroke="black" points="1087.5,-4 1087.5,-26 1250.5,-26 1250.5,-4 1087.5,-4"/>
<text text-anchor="start" x="1108.63" y="-10.7" font-family="Times,serif" font-size="14.00">updated_at:</text>
<text text-anchor="start" x="1171.63" y="-10.7" font-family="Helvetica,sans-Serif" font-style="oblique" font-size="10.00">TIMESTAMP</text>
</g>
<!-- api_locations&#45;&gt;users -->
<g id="edge1" class="edge">
<title>api_locations:user_id&#45;&gt;users:id</title>
<path fill="none" stroke="#444444" stroke-dasharray="5,2" d="M337,-169C666.64,-169 751.46,-169 1076.32,-169"/>
<polygon fill="#444444" stroke="#444444" points="1085.5,-172.5 1075.5,-169 1085.5,-165.5 1085.5,-172.5"/>
</g>
<!-- failed_jobs -->
<g id="node2" class="node">
<title>failed_jobs</title>
<polygon fill="#dddddd" stroke="none" points="215.5,-514 215.5,-536 330.5,-536 330.5,-514 215.5,-514"/>
<polygon fill="none" stroke="black" points="215.5,-514 215.5,-536 330.5,-536 330.5,-514 215.5,-514"/>
<text text-anchor="start" x="243" y="-519.7" font-family="Times,serif" font-size="14.00">failed_jobs</text>
<polygon fill="none" stroke="black" points="215.5,-492 215.5,-514 330.5,-514 330.5,-492 215.5,-492"/>
<text text-anchor="start" x="249" y="-498.7" font-family="Times,serif" font-size="14.00">id:</text>
<text text-anchor="start" x="263.25" y="-498.7" font-family="Helvetica,sans-Serif" font-style="oblique" font-size="10.00">BIGINT</text>
<polygon fill="none" stroke="black" points="215.5,-470 215.5,-492 330.5,-492 330.5,-470 215.5,-470"/>
<text text-anchor="start" x="234.75" y="-476.7" font-family="Times,serif" font-size="14.00">uuid:</text>
<text text-anchor="start" x="262.5" y="-476.7" font-family="Helvetica,sans-Serif" font-style="oblique" font-size="10.00">VARCHAR</text>
<polygon fill="none" stroke="black" points="215.5,-448 215.5,-470 330.5,-470 330.5,-448 215.5,-448"/>
<text text-anchor="start" x="228.75" y="-454.7" font-family="Times,serif" font-size="14.00">connection:</text>
<text text-anchor="start" x="291.75" y="-454.7" font-family="Helvetica,sans-Serif" font-style="oblique" font-size="10.00">TEXT</text>
<polygon fill="none" stroke="black" points="215.5,-426 215.5,-448 330.5,-448 330.5,-426 215.5,-426"/>
<text text-anchor="start" x="242.25" y="-432.7" font-family="Times,serif" font-size="14.00">queue:</text>
<text text-anchor="start" x="278.25" y="-432.7" font-family="Helvetica,sans-Serif" font-style="oblique" font-size="10.00">TEXT</text>
<polygon fill="none" stroke="black" points="215.5,-404 215.5,-426 330.5,-426 330.5,-404 215.5,-404"/>
<text text-anchor="start" x="223.13" y="-410.7" font-family="Times,serif" font-size="14.00">payload:</text>
<text text-anchor="start" x="269.63" y="-410.7" font-family="Helvetica,sans-Serif" font-style="oblique" font-size="10.00">LONGTEXT</text>
<polygon fill="none" stroke="black" points="215.5,-382 215.5,-404 330.5,-404 330.5,-382 215.5,-382"/>
<text text-anchor="start" x="218.25" y="-388.7" font-family="Times,serif" font-size="14.00">exception:</text>
<text text-anchor="start" x="274.5" y="-388.7" font-family="Helvetica,sans-Serif" font-style="oblique" font-size="10.00">LONGTEXT</text>
<polygon fill="none" stroke="black" points="215.5,-360 215.5,-382 330.5,-382 330.5,-360 215.5,-360"/>
<text text-anchor="start" x="218.63" y="-366.7" font-family="Times,serif" font-size="14.00">failed_at:</text>
<text text-anchor="start" x="269.63" y="-366.7" font-family="Helvetica,sans-Serif" font-style="oblique" font-size="10.00">TIMESTAMP</text>
</g>
<!-- migrations -->
<g id="node3" class="node">
<title>migrations</title>
<polygon fill="#dddddd" stroke="none" points="217.5,-628 217.5,-650 328.5,-650 328.5,-628 217.5,-628"/>
<polygon fill="none" stroke="black" points="217.5,-628 217.5,-650 328.5,-650 328.5,-628 217.5,-628"/>
<text text-anchor="start" x="243.75" y="-633.7" font-family="Times,serif" font-size="14.00">migrations</text>
<polygon fill="none" stroke="black" points="217.5,-606 217.5,-628 328.5,-628 328.5,-606 217.5,-606"/>
<text text-anchor="start" x="257.63" y="-612.7" font-family="Times,serif" font-size="14.00">id:</text>
<text text-anchor="start" x="271.88" y="-612.7" font-family="Helvetica,sans-Serif" font-style="oblique" font-size="10.00">INT</text>
<polygon fill="none" stroke="black" points="217.5,-584 217.5,-606 328.5,-606 328.5,-584 217.5,-584"/>
<text text-anchor="start" x="220.13" y="-590.7" font-family="Times,serif" font-size="14.00">migration:</text>
<text text-anchor="start" x="277.13" y="-590.7" font-family="Helvetica,sans-Serif" font-style="oblique" font-size="10.00">VARCHAR</text>
<polygon fill="none" stroke="black" points="217.5,-562 217.5,-584 328.5,-584 328.5,-562 217.5,-562"/>
<text text-anchor="start" x="248.25" y="-568.7" font-family="Times,serif" font-size="14.00">batch:</text>
<text text-anchor="start" x="281.25" y="-568.7" font-family="Helvetica,sans-Serif" font-style="oblique" font-size="10.00">INT</text>
</g>
<!-- password_reset_tokens -->
<g id="node4" class="node">
<title>password_reset_tokens</title>
<polygon fill="#dddddd" stroke="none" points="207.5,-742 207.5,-764 338.5,-764 338.5,-742 207.5,-742"/>
<polygon fill="none" stroke="black" points="207.5,-742 207.5,-764 338.5,-764 338.5,-742 207.5,-742"/>
<text text-anchor="start" x="210.38" y="-747.7" font-family="Times,serif" font-size="14.00">password_reset_tokens</text>
<polygon fill="none" stroke="black" points="207.5,-720 207.5,-742 338.5,-742 338.5,-720 207.5,-720"/>
<text text-anchor="start" x="231.38" y="-726.7" font-family="Times,serif" font-size="14.00">email:</text>
<text text-anchor="start" x="265.88" y="-726.7" font-family="Helvetica,sans-Serif" font-style="oblique" font-size="10.00">VARCHAR</text>
<polygon fill="none" stroke="black" points="207.5,-698 207.5,-720 338.5,-720 338.5,-698 207.5,-698"/>
<text text-anchor="start" x="231.75" y="-704.7" font-family="Times,serif" font-size="14.00">token:</text>
<text text-anchor="start" x="265.5" y="-704.7" font-family="Helvetica,sans-Serif" font-style="oblique" font-size="10.00">VARCHAR</text>
<polygon fill="none" stroke="black" points="207.5,-676 207.5,-698 338.5,-698 338.5,-676 207.5,-676"/>
<text text-anchor="start" x="214.5" y="-682.7" font-family="Times,serif" font-size="14.00">created_at:</text>
<text text-anchor="start" x="273.75" y="-682.7" font-family="Helvetica,sans-Serif" font-style="oblique" font-size="10.00">TIMESTAMP</text>
</g>
<!-- personal_access_tokens -->
<g id="node5" class="node">
<title>personal_access_tokens</title>
<polygon fill="#dddddd" stroke="none" points="202.5,-1010 202.5,-1032 343.5,-1032 343.5,-1010 202.5,-1010"/>
<polygon fill="none" stroke="black" points="202.5,-1010 202.5,-1032 343.5,-1032 343.5,-1010 202.5,-1010"/>
<text text-anchor="start" x="208.5" y="-1015.7" font-family="Times,serif" font-size="14.00">personal_access_tokens</text>
<polygon fill="none" stroke="black" points="202.5,-988 202.5,-1010 343.5,-1010 343.5,-988 202.5,-988"/>
<text text-anchor="start" x="249" y="-994.7" font-family="Times,serif" font-size="14.00">id:</text>
<text text-anchor="start" x="263.25" y="-994.7" font-family="Helvetica,sans-Serif" font-style="oblique" font-size="10.00">BIGINT</text>
<polygon fill="none" stroke="black" points="202.5,-966 202.5,-988 343.5,-988 343.5,-966 202.5,-966"/>
<text text-anchor="start" x="205.5" y="-972.7" font-family="Times,serif" font-size="14.00">tokenable_type:</text>
<text text-anchor="start" x="291.75" y="-972.7" font-family="Helvetica,sans-Serif" font-style="oblique" font-size="10.00">VARCHAR</text>
<polygon fill="none" stroke="black" points="202.5,-944 202.5,-966 343.5,-966 343.5,-944 202.5,-944"/>
<text text-anchor="start" x="219.38" y="-950.7" font-family="Times,serif" font-size="14.00">tokenable_id:</text>
<text text-anchor="start" x="292.88" y="-950.7" font-family="Helvetica,sans-Serif" font-style="oblique" font-size="10.00">BIGINT</text>
<polygon fill="none" stroke="black" points="202.5,-922 202.5,-944 343.5,-944 343.5,-922 202.5,-922"/>
<text text-anchor="start" x="231.75" y="-928.7" font-family="Times,serif" font-size="14.00">name:</text>
<text text-anchor="start" x="265.5" y="-928.7" font-family="Helvetica,sans-Serif" font-style="oblique" font-size="10.00">VARCHAR</text>
<polygon fill="none" stroke="black" points="202.5,-900 202.5,-922 343.5,-922 343.5,-900 202.5,-900"/>
<text text-anchor="start" x="231.75" y="-906.7" font-family="Times,serif" font-size="14.00">token:</text>
<text text-anchor="start" x="265.5" y="-906.7" font-family="Helvetica,sans-Serif" font-style="oblique" font-size="10.00">VARCHAR</text>
<polygon fill="none" stroke="black" points="202.5,-878 202.5,-900 343.5,-900 343.5,-878 202.5,-878"/>
<text text-anchor="start" x="237" y="-884.7" font-family="Times,serif" font-size="14.00">abilities:</text>
<text text-anchor="start" x="283.5" y="-884.7" font-family="Helvetica,sans-Serif" font-style="oblique" font-size="10.00">TEXT</text>
<polygon fill="none" stroke="black" points="202.5,-856 202.5,-878 343.5,-878 343.5,-856 202.5,-856"/>
<text text-anchor="start" x="208.88" y="-862.7" font-family="Times,serif" font-size="14.00">last_used_at:</text>
<text text-anchor="start" x="279.38" y="-862.7" font-family="Helvetica,sans-Serif" font-style="oblique" font-size="10.00">TIMESTAMP</text>
<polygon fill="none" stroke="black" points="202.5,-834 202.5,-856 343.5,-856 343.5,-834 202.5,-834"/>
<text text-anchor="start" x="214.5" y="-840.7" font-family="Times,serif" font-size="14.00">expires_at:</text>
<text text-anchor="start" x="273.75" y="-840.7" font-family="Helvetica,sans-Serif" font-style="oblique" font-size="10.00">TIMESTAMP</text>
<polygon fill="none" stroke="black" points="202.5,-812 202.5,-834 343.5,-834 343.5,-812 202.5,-812"/>
<text text-anchor="start" x="214.5" y="-818.7" font-family="Times,serif" font-size="14.00">created_at:</text>
<text text-anchor="start" x="273.75" y="-818.7" font-family="Helvetica,sans-Serif" font-style="oblique" font-size="10.00">TIMESTAMP</text>
<polygon fill="none" stroke="black" points="202.5,-790 202.5,-812 343.5,-812 343.5,-790 202.5,-790"/>
<text text-anchor="start" x="212.63" y="-796.7" font-family="Times,serif" font-size="14.00">updated_at:</text>
<text text-anchor="start" x="275.63" y="-796.7" font-family="Helvetica,sans-Serif" font-style="oblique" font-size="10.00">TIMESTAMP</text>
</g>
</g>
</svg>
